<?xml version="1.0" encoding="UTF-8"?>
<svg width="144px" height="24px" viewBox="0 0 144 24" version="1.1" xmlns="http://www.w3.org/2000/svg" xmlns:xlink="http://www.w3.org/1999/xlink">
    <!-- Generator: Sketch 50 (54983) - http://www.bohemiancoding.com/sketch -->
    <title>logo_grupo_zap</title>
    <desc>Created with Sketch.</desc>
    <defs>
        <linearGradient x1="6.12146747%" y1="49.9965522%" x2="99.7867537%" y2="49.9965522%" id="linearGradient-1">
            <stop stop-color="#FFFFFF" offset="0%"></stop>
            <stop stop-color="#FFFFFF" stop-opacity="0.58" offset="38%"></stop>
            <stop stop-color="#FFFFFF" stop-opacity="0.27" offset="68%"></stop>
            <stop stop-color="#FFFFFF" stop-opacity="0.07" offset="89%"></stop>
            <stop stop-color="#FFFFFF" stop-opacity="0" offset="100%"></stop>
        </linearGradient>
    </defs>
    <g id="Page-1" stroke="none" stroke-width="1" fill="none" fill-rule="evenodd">
        <g id="Footer-Site-ZAP---Desktop-1280" transform="translate(-1097.000000, -543.000000)" fill-rule="nonzero">
            <g id="Footer-/-4.-Desktop-[1280]" transform="translate(0.000000, -1.000000)">
                <g id="Global-Footer" transform="translate(0.000000, 496.000000)">
                    <g id="Grupo-ZAP" transform="translate(1097.000000, 19.000000)">
                        <g id="logo_grupo_zap" transform="translate(0.000000, 29.000000)">
                            <path d="M124.947826,13.9756522 L118.373913,1.48869565 C117.913043,0.532173913 117.10087,0 116.173913,0 C115.21913,0 114.434783,0.52173913 113.97913,1.48521739 L107.391304,13.96 L107.313043,14.1130435 L107.302609,14.133913 L107.313043,14.1130435 C114.965217,5.48695652 120.850435,16.146087 120.853913,16.1530435 C120.926957,16.2852174 120.965217,16.3582609 120.965217,16.3582609 C121.353292,17.1159309 122.145901,17.579417 122.996522,17.546087 C124.257929,17.5247593 125.275896,16.5083305 125.29913,15.2469565 C125.30087,14.8591304 125.194783,14.506087 124.947826,13.9756522 Z" id="Shape" fill="#FFFFFF"></path>
                            <path d="M107.304348,14.1130435 L107.276522,14.1669565 C107.089916,14.4912043 106.992135,14.8589348 106.993043,15.2330435 C107.018467,16.5062351 108.053538,17.5274226 109.326957,17.5356522 C110.100755,17.5733032 110.833025,17.1841389 111.234783,16.5217391 C111.801739,15.7147826 112.958261,13.7669565 116.161739,13.7930435 C118.98087,13.7930435 120.455652,15.4695652 120.857391,16.1530435 C120.850435,16.1478261 114.972174,5.48695652 107.304348,14.1130435 Z" id="Shape" fill="url(#linearGradient-1)"></path>
                            <path d="M104.817391,15.3373913 C104.821825,15.8989153 104.598081,16.4381763 104.197421,16.8316232 C103.796761,17.22507 103.253525,17.4389814 102.692174,17.4243478 L92.8486957,17.4243478 C92.2932043,17.4309447 91.7585372,17.2131886 91.3657178,16.8203692 C90.9728984,16.4275498 90.7551423,15.8928827 90.7617391,15.3373913 C90.7617391,14.7147826 90.9808696,14.3895652 91.6052174,13.5443478 L98.1565217,4.26608696 L93.0208696,4.26608696 C91.813913,4.26608696 90.8991304,3.38608696 90.9008696,2.17913043 C90.9026087,0.972173913 91.8173913,0.0956521739 93.0243478,0.0973913043 L102.662609,0.0973913043 C103.869565,0.0973913043 104.784348,0.977391304 104.784348,2.14956522 C104.784348,2.84521739 104.473043,3.26086957 104.088696,3.83304348 L97.2886957,13.2452174 L102.697391,13.2452174 C103.904348,13.2504348 104.81913,14.1286957 104.817391,15.3373913 Z" id="Shape" fill="#FFFFFF"></path>
                            <path d="M135.033043,0.0973913043 L130.337391,0.0973913043 C129.187284,0.15430072 128.28745,1.10941483 128.29913,2.26086957 L128.29913,19.6991304 C128.29913,21.0025224 129.355738,22.0591304 130.65913,22.0591304 C131.962522,22.0591304 133.01913,21.0025224 133.01913,19.6991304 L133.01913,17.4208696 C133.021045,17.0130576 133.352184,16.6834738 133.76,16.6834783 L135.01913,16.6834783 C139.652174,16.6626087 143.130435,12.986087 143.130435,8.38086957 C143.130435,3.77565217 139.652174,0.109565217 135.033043,0.0973913043 Z" id="Shape" fill="#FFFFFF"></path>
                            <path d="M48.2695652,4.17391304 L48.2695652,2.22782609 C48.2695652,1.98666667 48.2637681,1.75478261 48.2521739,1.53217391 C48.2405797,1.30956522 48.2231884,1.0742029 48.2,0.826086957 L49.6469565,0.826086957 C49.6689855,1.07884058 49.6863768,1.3026087 49.6991304,1.4973913 L49.733913,2.10086957 C49.7455072,2.30724638 49.7571014,2.5426087 49.7686957,2.80695652 C49.7802899,3.07130435 49.786087,3.38724638 49.786087,3.75478261 C49.902029,3.5484058 50.0857971,3.25855072 50.3373913,2.88521739 C50.6413173,2.46493952 51.0072155,2.09317754 51.4226087,1.7826087 C51.9542795,1.38149938 52.5397239,1.05716314 53.1617391,0.819130435 C53.9547211,0.52530207 54.796316,0.384839523 55.6417391,0.405217391 C56.734007,0.378808517 57.8178545,0.602478468 58.8104348,1.05913043 C59.6801946,1.47501748 60.4407121,2.08843411 61.0313043,2.85043478 C61.6362012,3.64732426 62.0809224,4.55389417 62.3408696,5.52 C62.6354267,6.60295751 62.7799636,7.72121712 62.7704348,8.84347826 C62.7863159,9.9967209 62.5820871,11.1424093 62.1686957,12.2191304 C61.7919954,13.1955744 61.21768,14.0836911 60.4817391,14.8278261 C59.7555635,15.5527132 58.8884184,16.1209448 57.933913,16.4973913 C56.9192358,16.895054 55.8375941,17.0940242 54.7478261,17.0834783 C53.763473,17.1070217 52.7831626,16.9496297 51.8556522,16.6191304 C51.1454864,16.3522588 50.4550706,16.0355276 49.7895652,15.6713043 L49.7895652,23.5582609 L48.2747826,23.5582609 L48.2695652,4.17391304 Z M49.7843478,13.9130435 L50.4347826,14.3843478 C50.7628661,14.6090539 51.1123982,14.8007139 51.4782609,14.9565217 C51.9404406,15.156879 52.4186464,15.3180262 52.9078261,15.4382609 C53.5107609,15.5834712 54.1294394,15.6529922 54.7495652,15.6452174 C55.5929353,15.6470237 56.4294501,15.4937511 57.2173913,15.1930435 C57.9796179,14.906168 58.672059,14.4603497 59.2486957,13.8852174 C59.8426518,13.2799907 60.3056009,12.5589268 60.6086957,11.7669565 C60.9575677,10.8373913 61.1269385,9.85008356 61.1078261,8.8573913 C61.1109511,7.96414151 61.0070217,7.07373559 60.7982609,6.20521739 C60.6159538,5.40525084 60.2862766,4.6462266 59.826087,3.96695652 C59.3777324,3.32406844 58.7812224,2.79854317 58.0869565,2.43478261 C57.3750725,2.05565217 56.5055072,1.86608696 55.4782609,1.86608696 C54.8393817,1.85766382 54.2040608,1.96247117 53.6017391,2.17565217 C53.0590079,2.37121869 52.5528729,2.65632374 52.1043478,3.01913043 C51.6637516,3.37474305 51.2771113,3.7924317 50.9565217,4.25913043 C50.6432753,4.71346606 50.3885158,5.2054558 50.1982609,5.72347826 C50.0231402,6.1998415 49.9131606,6.69767469 49.8713043,7.20347826 C49.8133333,7.78318841 49.7843478,8.36869565 49.7843478,8.96 L49.7843478,13.9130435 Z" id="Shape" fill="#FFFFFF"></path>
                            <path d="M2.3773913,20.9791304 C2.91021758,21.373451 3.48822209,21.7027384 4.09913043,21.96 C4.87942029,22.315942 5.91246377,22.493913 7.19826087,22.493913 C8.34608696,22.493913 9.29913043,22.3391304 10.0573913,22.0295652 C11.4611515,21.5022608 12.5064153,20.3054338 12.84,18.8434783 C13.0296447,18.0542289 13.1219257,17.244726 13.1147826,16.4330435 L13.1147826,14.0226087 C12.7446459,14.6225523 12.2657092,15.1480851 11.7026087,15.5721739 C11.1502225,16.0010115 10.5416594,16.3521056 9.89391304,16.6156522 C9.06483793,16.9457509 8.17727526,17.103737 7.28521739,17.08 C6.19477846,17.1062738 5.11222492,16.8888125 4.11652174,16.4434783 C3.2589149,16.0427014 2.50498529,15.4500306 1.91304348,14.7113043 C1.3081102,13.9372673 0.863508591,13.050429 0.605217391,12.1026087 C0.311819687,11.0573474 0.166634422,9.97606843 0.173913043,8.89043478 C0.15640486,7.6904557 0.38486789,6.49960696 0.845217391,5.39130435 C1.27003635,4.38198298 1.90362411,3.47397881 2.70434783,2.72695652 C3.51175105,1.98266608 4.45706872,1.40365901 5.48695652,1.0226087 C6.59728883,0.612623429 7.77296575,0.408132256 8.95652174,0.419130435 C10.0506676,0.414719822 11.1419432,0.53137141 12.2104348,0.766956522 C13.0534095,0.939781999 13.8780037,1.1925178 14.6730435,1.52173913 L14.6730435,16.3304348 C14.6857821,17.4059679 14.547029,18.4779381 14.2608696,19.5147826 C14.0159853,20.4117625 13.5618123,21.2378567 12.9356522,21.9252174 C12.28439,22.6068819 11.4819068,23.1257853 10.5930435,23.44 C9.64,23.795942 8.48637681,23.973913 7.13217391,23.973913 C6.43888219,23.9797273 5.74674554,23.9162232 5.06608696,23.7843478 C4.51122372,23.6784641 3.96826314,23.5176732 3.44521739,23.3043478 C3.03568958,23.1335411 2.63976246,22.9317985 2.26086957,22.7008696 C1.98830471,22.5376603 1.72895892,22.3533271 1.48521739,22.1495652 L2.3773913,20.9791304 Z M13.16,2.58782609 C12.7914127,2.44155055 12.4116315,2.32523166 12.0243478,2.24 C11.6602899,2.15188406 11.2173913,2.06724638 10.6956522,1.98608696 C10.1082598,1.90103425 9.51523472,1.86091784 8.92173913,1.86608696 C7.99422301,1.85933407 7.07281027,2.01653356 6.2,2.33043478 C5.36415005,2.63041742 4.59581218,3.0926022 3.93913043,3.69043478 C3.27043308,4.31156411 2.74365925,5.06969131 2.39478261,5.91304348 C2.00286113,6.86808018 1.8099403,7.89304606 1.82782609,8.92521739 C1.82290635,9.7858831 1.92692102,10.6437119 2.1373913,11.4782609 C2.32700625,12.2455389 2.65979204,12.9701151 3.11826087,13.613913 C3.57166473,14.2393076 4.16792742,14.7473234 4.8573913,15.0956522 C5.56927536,15.4597101 6.44289855,15.6417391 7.47826087,15.6417391 C8.37282989,15.6677749 9.25997786,15.4724231 10.0608696,15.0730435 C10.7282383,14.7291642 11.3242894,14.2617657 11.8173913,13.6956522 C12.2515252,13.1941038 12.5941284,12.6201552 12.8295652,12 C13.0220825,11.5343602 13.1326951,11.0389569 13.1565217,10.5356522 L13.16,2.58782609 Z" id="Shape" fill="#FFFFFF"></path>
                            <path d="M30.4034783,0.833043478 L31.9530435,0.833043478 L31.9530435,9.61565217 C31.932977,10.5994801 32.0310699,11.5821604 32.2452174,12.5426087 C32.3887367,13.2207795 32.6862553,13.8568742 33.1147826,14.4017391 C33.4953064,14.8543644 33.9973796,15.1886776 34.5617391,15.3652174 C35.2090843,15.5592666 35.8825628,15.6519579 36.5582609,15.64 C37.4582935,15.661443 38.3483881,15.44806 39.1408696,15.0208696 C39.8509908,14.6293989 40.4680049,14.0889182 40.9495652,13.4365217 C41.4188443,12.7906787 41.7719551,12.0679785 41.9930435,11.3008696 C42.2189674,10.5522344 42.3361073,9.77501122 42.3408696,8.99304348 L42.3408696,0.833043478 L43.96,0.833043478 L43.96,16.6747826 L42.5130435,16.6747826 C42.4898551,16.422029 42.4724638,16.1901449 42.4608696,15.9791304 C42.4492754,15.7681159 42.4376812,15.5443478 42.426087,15.3078261 C42.413913,15.066087 42.4086957,14.7965217 42.4086957,14.4991304 L42.4086957,13.3686957 C42.1839118,13.776265 41.9305233,14.1673899 41.6504348,14.5391304 C40.9045325,15.5371698 39.8801214,16.2923175 38.706087,16.7095652 C37.9488451,16.9753511 37.1502169,17.1037441 36.3478261,17.0886957 C35.2231884,17.0886957 34.2817391,16.9281159 33.5234783,16.6069565 C32.798943,16.3113773 32.1641056,15.8318023 31.6817391,15.2156522 C31.1931596,14.5687047 30.852402,13.8224812 30.6834783,13.0295652 C30.4779497,12.0795123 30.3799422,11.109355 30.3913043,10.1373913 L30.4034783,0.833043478 Z" id="Shape" fill="#FFFFFF"></path>
                            <path d="M73.2295652,17.0869565 C72.1390997,17.0942546 71.0593601,16.8714324 70.0608696,16.4330435 C67.0151238,15.09638 65.053519,12.0791571 65.0678261,8.75304348 C65.0603125,7.64238683 65.2767995,6.54161543 65.7043478,5.51652174 C66.5281723,3.52832101 68.0893366,1.93599573 70.0608696,1.07304348 C72.0832641,0.200648867 74.3758664,0.200648867 76.3982609,1.07304348 C78.3666184,1.93767642 79.9244863,3.52981743 80.746087,5.51652174 C81.1764327,6.54105294 81.3958742,7.64180959 81.3913043,8.75304348 C81.3987227,9.86369117 81.1822394,10.9644437 80.7547826,11.9895652 C79.933182,13.9762695 78.3753141,15.5684105 76.4069565,16.4330435 C75.405739,16.8724816 74.3229418,17.0953233 73.2295652,17.0869565 Z M73.2295652,15.6747826 C74.1197192,15.6827217 75.0009517,15.4969804 75.8121739,15.1304348 C76.597737,14.7772374 77.3066825,14.2738861 77.8991304,13.6486957 C78.4936542,13.0146486 78.9612107,12.2725798 79.2765217,11.4626087 C79.6134302,10.6017284 79.7828412,9.68442984 79.7756522,8.76 C79.7768936,7.85595552 79.5995887,6.96056542 79.253913,6.12521739 C78.9239659,5.30906852 78.4530214,4.55732331 77.8626087,3.90434783 C77.2773982,3.26253802 76.5672219,2.74706834 75.7756522,2.38956522 C74.1383079,1.65507437 72.2651704,1.65507437 70.6278261,2.38956522 C69.8505981,2.74661418 69.1491936,3.24964167 68.5617391,3.87130435 C67.9672495,4.50537777 67.4996974,5.24743963 67.1843478,6.0573913 C66.8473155,6.91823628 66.6779001,7.83555893 66.6852174,8.76 C66.6805129,9.67000634 66.8579067,10.5717586 67.2069565,11.4121739 C67.5397142,12.2216473 68.0104714,12.9672091 68.5982609,13.6156522 C69.1831095,14.2578664 69.8933753,14.773401 70.6852174,15.1304348 C71.4838728,15.4940976 72.3520258,15.6798336 73.2295652,15.6747826 Z" id="Shape" fill="#FFFFFF"></path>
                            <path d="M26.3043478,0.711304348 C25.453913,0.711304348 24.7078261,0.786086957 24.066087,1.03826087 C23.4635446,1.26911242 22.8958425,1.58222646 22.3791304,1.96869565 C21.9279026,2.30519646 21.5278052,2.70529387 21.1913043,3.15652174 C20.9180103,3.52329493 20.6704609,3.90856557 20.4504348,4.30956522 L20.4504348,3.17391304 C20.4504348,2.85275362 20.4446377,2.56289855 20.4330435,2.30434783 C20.4214493,2.0457971 20.4098551,1.79884058 20.3982609,1.56347826 C20.3866667,1.3315942 20.3692754,1.09043478 20.346087,0.84 L18.8991304,0.84 C18.9223188,1.09275362 18.9397101,1.32811594 18.9513043,1.54608696 C18.9628986,1.76405797 18.9686957,1.99594203 18.9686957,2.24173913 L18.9686957,16.6747826 L20.5217391,16.6747826 L20.5217391,8.58086957 C20.5230452,7.79107852 20.6558768,7.00701928 20.9147826,6.26086957 L20.9147826,6.25043478 C21.28799,5.34042845 21.8177366,4.50284019 22.48,3.77565217 C22.4904348,3.76347826 23.7078261,2.45043478 25.4365217,2.24521739 L25.6469565,2.22782609 L25.7947826,2.22782609 C25.8643478,2.22782609 25.933913,2.22782609 26.0052174,2.22782609 C26.2062595,2.2291346 26.4071026,2.24074402 26.6069565,2.2626087 C26.8008249,2.27141833 26.9923877,2.30832492 27.1756522,2.37217391 L27.1756522,0.808695652 C26.8901303,0.741660185 26.5976241,0.708964881 26.3043478,0.711304348 Z" id="Shape" fill="#FFFFFF"></path>
                        </g>
                    </g>
                </g>
            </g>
        </g>
    </g>
</svg>